# xmcd
#
# Track frame offsets:
#	225
#	15630
#	32864
#	46084
#	62514
#	81976
#	97886
#	112762
#	129947
#	141646
#
# Disc length: 2143 seconds
# Revision: 0
# Processed by: cddbd v1.5.2PL0 Copyright (c) Steve Scherf et al.
# Submitted via: dBpowerAMP V12.0
#
DISCID=7a085c0a
DTITLE=Jane Lantier - Jane Lantier
DYEAR=2006
DGENRE=Country
TTITLE0=I Won't Let Go
TTITLE1=Until
TTITLE2=Round One
TTITLE3=Your Not Listening To Me
TTITLE4=As Days Go By
TTITLE5=Open Arms
TTITLE6=Back For More
TTITLE7=Never Too Late For Love
TTITLE8=Someday
TTITLE9=I've Been Lonely Long Enough
EXTD=
EXTT0=
EXTT1=
EXTT2=
EXTT3=
EXTT4=
EXTT5=
EXTT6=
EXTT7=
EXTT8=
EXTT9=
PLAYORDER=
